<svg xmlns="http://www.w3.org/2000/svg" xmlns:xlink="http://www.w3.org/1999/xlink" width="329" height="280" viewBox="0 0 329 280">
    <defs>
        <linearGradient id="a" x1="0%" y1="86.215%" y2="19.844%">
            <stop offset="0%" stop-color="#4395C0"/>
            <stop offset="100%" stop-color="#205C8C"/>
        </linearGradient>
        <linearGradient id="b" x1="100%" x2="0%" y1="50%" y2="50%">
            <stop offset="0%" stop-color="#4396C1"/>
            <stop offset="100%" stop-color="#205D8D"/>
        </linearGradient>
        <linearGradient id="c" x1="0%" y1="50%" y2="50%">
            <stop offset="0%" stop-color="#FB9E13"/>
            <stop offset="100%" stop-color="#FD852B"/>
        </linearGradient>
        <path id="d" d="M.318 0h84.51v31.2H.318z"/>
        <linearGradient id="f" x1="100%" x2="-78.291%" y1="41.964%" y2="41.964%">
            <stop offset="0%" stop-color="#4395C0"/>
            <stop offset="100%" stop-color="#205C8C"/>
        </linearGradient>
        <linearGradient id="g" x1="0%" y1="50%" y2="50%">
            <stop offset="0%" stop-color="#FB9E13"/>
            <stop offset="100%" stop-color="#FD852B"/>
        </linearGradient>
        <path id="h" d="M3.816 0h59.38a3.499 3.499 0 0 1 3.498 3.499v38.359H.318V3.498A3.499 3.499 0 0 1 3.816 0z"/>
    </defs>
    <g fill="none" fill-rule="evenodd">
        <path fill="url(#a)" d="M58.079 40.295C108.834 26.428 131.48.85 165.514.088c34.034-.762 29.644 3.018 70.52 26.882 40.875 23.863 72.159 21.373 87.43 59.242 15.273 37.87-2.63 128.974-34.432 159.615-31.803 30.64-134.312 32.527-166.6 34.074-21.526 1.032-42.96-6.033-64.301-21.195C19.385 213.368.008 173.81 0 140.032c-.012-50.667 7.324-85.87 58.079-99.737z" opacity=".1" transform="matrix(-1 0 0 1 329 0)"/>
        <path fill="#92C1DB" d="M165.462 71.781c6.318 10.275 7.448 23.697 2 34.557-1.875 3.737-17.92-.607-20.566-1.958-16.83-8.594-22.207-29.138-13.261-45.254.936-1.686 13.793.52 15.602.952 5.55 1.324 10.711 4.181 14.21 8.765a35.516 35.516 0 0 1 2.015 2.938"/>
        <path fill="#FFFFFE" d="M166.414 107.596l-.003.002a.133.133 0 0 1-.186-.035l-32.1-47.258a.137.137 0 0 1 .035-.188.133.133 0 0 1 .185.035l32.1 47.258c.042.06.027.143-.031.186"/>
        <path fill="#FFFFFE" d="M148.129 80.624l-.252-.12-18.449-8.941a.135.135 0 0 1-.062-.18.133.133 0 0 1 .178-.064l18.306 8.872-.547-19.959a.135.135 0 0 1 .13-.138.134.134 0 0 1 .137.13l.559 20.4M159.607 96.952l-26.987-6.698a.135.135 0 0 1-.098-.163.133.133 0 0 1 .162-.1l26.736 6.637 6.537-23.688a.133.133 0 0 1 .164-.093c.072.02.113.094.093.166l-6.607 23.94"/>
        <path fill="#92C1DB" d="M98.11 138.081c6.318 10.275 7.447 23.697 2 34.557-1.876 3.737-17.92-.607-20.566-1.958-16.83-8.594-22.208-29.138-13.262-45.254.936-1.686 13.794.52 15.603.952 5.55 1.324 10.71 4.181 14.209 8.765a35.516 35.516 0 0 1 2.016 2.938"/>
        <path fill="#FFFFFE" d="M99.062 173.896l-.003.002a.133.133 0 0 1-.186-.035l-32.1-47.258a.137.137 0 0 1 .034-.188.133.133 0 0 1 .186.035l32.1 47.258c.041.06.027.143-.031.186"/>
        <path fill="#FFFFFE" d="M80.777 146.924l-.252-.12-18.45-8.941a.135.135 0 0 1-.062-.18.133.133 0 0 1 .178-.064l18.307 8.872-.547-19.959a.135.135 0 0 1 .13-.138.134.134 0 0 1 .137.13l.559 20.4M92.255 163.252l-26.987-6.698a.135.135 0 0 1-.098-.163.133.133 0 0 1 .161-.1l26.736 6.637 6.538-23.688a.133.133 0 0 1 .164-.093c.071.02.112.094.093.166l-6.607 23.94"/>
        <g>
            <g transform="translate(92.309 104.39)">
                <rect width="103.619" height="70.2" fill="url(#b)" rx="2.854"/>
                <path fill="#E3F0F5" d="M6.476 6.5h90.667v57.2H6.476z"/>
                <path fill="url(#c)" d="M1.23.26h84.838v19.5H1.23z" transform="translate(7.771 41.6)"/>
                <path fill="#FFF" d="M41.642 47.06h2.15c1.49 0 2.111.689 2.111 2.093v.325c0 .936-.285 1.534-.92 1.833.778.299 1.063.975 1.063 1.95v.741c0 1.404-.726 2.158-2.163 2.158h-2.241v-9.1zm2.111 1.3h-.686v2.405h.557c.53 0 .854-.234.854-.962v-.507c0-.663-.22-.936-.725-.936zm-.052 3.705h-.634v2.795h.816c.479 0 .738-.221.738-.897v-.793c0-.845-.26-1.105-.92-1.105zm2.772 1.911v-4.732c0-1.469.764-2.288 2.163-2.288 1.399 0 2.163.819 2.163 2.288v4.732c0 1.469-.764 2.288-2.163 2.288-1.399 0-2.163-.819-2.163-2.288zm1.425-4.823v4.914c0 .663.285.897.738.897.454 0 .738-.234.738-.897v-4.914c0-.663-.284-.897-.738-.897-.453 0-.738.234-.738.897zm3.393 4.823v-4.732c0-1.469.765-2.288 2.163-2.288 1.4 0 2.164.819 2.164 2.288v4.732c0 1.469-.765 2.288-2.164 2.288-1.398 0-2.163-.819-2.163-2.288zm1.425-4.823v4.914c0 .663.285.897.738.897.454 0 .739-.234.739-.897v-4.914c0-.663-.285-.897-.739-.897-.453 0-.738.234-.738.897zm6.761 7.007l-1.386-3.627-.44.832v2.795h-1.425v-9.1h1.425v3.965l1.865-3.965h1.425l-1.982 4.056 1.982 5.044h-1.464z"/>
                <g transform="translate(9.067 9.1)">
                    <mask id="e" fill="#fff">
                        <use xlink:href="#d"/>
                    </mask>
                    <use fill="#205C8C" xlink:href="#d"/>
                    <g fill="#205C8C" stroke="#FFF" stroke-width=".792" mask="url(#e)" opacity=".1">
                        <path d="M-1.264 37.77H3.01v4.29h-4.274zM-1.264 33.48H3.01v4.29h-4.274zM3.01 37.77h4.274v4.29H3.01zM3.01 33.48h4.274v4.29H3.01zM7.285 37.77h4.274v4.29H7.285zM7.285 33.48h4.274v4.29H7.285zM11.56 37.77h4.273v4.29H11.56zM11.56 33.48h4.273v4.29H11.56z"/>
                        <path d="M15.833 37.77h4.274v4.29h-4.274zM15.833 33.48h4.274v4.29h-4.274zM20.107 37.77h4.274v4.29h-4.274zM20.107 33.48h4.274v4.29h-4.274zM24.382 37.77h4.274v4.29h-4.274zM24.382 33.48h4.274v4.29h-4.274z"/>
                        <path d="M28.656 37.77h4.274v4.29h-4.274zM28.656 33.48h4.274v4.29h-4.274zM32.93 37.77h4.274v4.29H32.93zM32.93 33.48h4.274v4.29H32.93zM37.205 37.77h4.274v4.29h-4.274zM37.205 33.48h4.274v4.29h-4.274zM41.48 37.77h4.273v4.29H41.48zM41.48 33.48h4.273v4.29H41.48zM45.753 37.77h4.274v4.29h-4.274zM45.753 33.48h4.274v4.29h-4.274zM50.027 37.77h4.274v4.29h-4.274zM50.027 33.48h4.274v4.29h-4.274zM54.302 37.77h4.274v4.29h-4.274zM54.302 33.48h4.274v4.29h-4.274zM58.576 37.77h4.274v4.29h-4.274zM58.576 33.48h4.274v4.29h-4.274zM62.85 37.77h4.274v4.29H62.85zM62.85 33.48h4.274v4.29H62.85zM-1.264 29.19H3.01v4.29h-4.274zM3.01 29.19h4.274v4.29H3.01zM7.285 29.19h4.274v4.29H7.285zM11.56 29.19h4.273v4.29H11.56z"/>
                        <path d="M15.833 29.19h4.274v4.29h-4.274zM20.107 29.19h4.274v4.29h-4.274zM24.382 29.19h4.274v4.29h-4.274z"/>
                        <path d="M28.656 29.19h4.274v4.29h-4.274zM32.93 29.19h4.274v4.29H32.93zM37.205 29.19h4.274v4.29h-4.274zM41.48 29.19h4.273v4.29H41.48zM45.753 29.19h4.274v4.29h-4.274zM50.027 29.19h4.274v4.29h-4.274zM54.302 29.19h4.274v4.29h-4.274zM58.576 29.19h4.274v4.29h-4.274zM62.85 29.19h4.274v4.29H62.85zM-1.264 24.9H3.01v4.29h-4.274zM3.01 24.9h4.274v4.29H3.01zM7.285 24.9h4.274v4.29H7.285zM11.56 24.9h4.273v4.29H11.56z"/>
                        <path d="M15.833 24.9h4.274v4.29h-4.274zM20.107 24.9h4.274v4.29h-4.274zM24.382 24.9h4.274v4.29h-4.274z"/>
                        <path d="M28.656 24.9h4.274v4.29h-4.274zM32.93 24.9h4.274v4.29H32.93zM37.205 24.9h4.274v4.29h-4.274zM41.48 24.9h4.273v4.29H41.48zM45.753 24.9h4.274v4.29h-4.274zM50.027 24.9h4.274v4.29h-4.274zM54.302 24.9h4.274v4.29h-4.274zM58.576 24.9h4.274v4.29h-4.274zM62.85 24.9h4.274v4.29H62.85zM-1.264 20.61H3.01v4.29h-4.274zM3.01 20.61h4.274v4.29H3.01zM7.285 20.61h4.274v4.29H7.285zM11.56 20.61h4.273v4.29H11.56z"/>
                        <path d="M15.833 20.61h4.274v4.29h-4.274zM20.107 20.61h4.274v4.29h-4.274zM24.382 20.61h4.274v4.29h-4.274z"/>
                        <path d="M28.656 20.61h4.274v4.29h-4.274zM32.93 20.61h4.274v4.29H32.93zM37.205 20.61h4.274v4.29h-4.274zM41.48 20.61h4.273v4.29H41.48zM45.753 20.61h4.274v4.29h-4.274zM50.027 20.61h4.274v4.29h-4.274zM54.302 20.61h4.274v4.29h-4.274zM58.576 20.61h4.274v4.29h-4.274zM62.85 20.61h4.274v4.29H62.85zM-1.264 16.32H3.01v4.29h-4.274zM3.01 16.32h4.274v4.29H3.01zM7.285 16.32h4.274v4.29H7.285zM11.56 16.32h4.273v4.29H11.56z"/>
                        <path d="M15.833 16.32h4.274v4.29h-4.274zM20.107 16.32h4.274v4.29h-4.274zM24.382 16.32h4.274v4.29h-4.274z"/>
                        <path d="M28.656 16.32h4.274v4.29h-4.274zM32.93 16.32h4.274v4.29H32.93zM37.205 16.32h4.274v4.29h-4.274zM41.48 16.32h4.273v4.29H41.48zM45.753 16.32h4.274v4.29h-4.274zM50.027 16.32h4.274v4.29h-4.274zM54.302 16.32h4.274v4.29h-4.274zM58.576 16.32h4.274v4.29h-4.274zM62.85 16.32h4.274v4.29H62.85zM-1.264 12.03H3.01v4.29h-4.274zM3.01 12.03h4.274v4.29H3.01zM7.285 12.03h4.274v4.29H7.285zM11.56 12.03h4.273v4.29H11.56z"/>
                        <path d="M15.833 12.03h4.274v4.29h-4.274zM20.107 12.03h4.274v4.29h-4.274zM24.382 12.03h4.274v4.29h-4.274z"/>
                        <path d="M28.656 12.03h4.274v4.29h-4.274zM32.93 12.03h4.274v4.29H32.93zM37.205 12.03h4.274v4.29h-4.274zM41.48 12.03h4.273v4.29H41.48zM45.753 12.03h4.274v4.29h-4.274zM50.027 12.03h4.274v4.29h-4.274zM54.302 12.03h4.274v4.29h-4.274zM58.576 12.03h4.274v4.29h-4.274zM62.85 12.03h4.274v4.29H62.85zM-1.264 7.74H3.01v4.29h-4.274zM3.01 7.74h4.274v4.29H3.01zM7.285 7.74h4.274v4.29H7.285zM11.56 7.74h4.273v4.29H11.56z"/>
                        <path d="M15.833 7.74h4.274v4.29h-4.274zM20.107 7.74h4.274v4.29h-4.274zM24.382 7.74h4.274v4.29h-4.274z"/>
                        <path d="M28.656 7.74h4.274v4.29h-4.274zM32.93 7.74h4.274v4.29H32.93zM37.205 7.74h4.274v4.29h-4.274zM41.48 7.74h4.273v4.29H41.48zM45.753 7.74h4.274v4.29h-4.274zM50.027 7.74h4.274v4.29h-4.274zM54.302 7.74h4.274v4.29h-4.274zM58.576 7.74h4.274v4.29h-4.274zM62.85 7.74h4.274v4.29H62.85zM-1.264 3.45H3.01v4.29h-4.274zM3.01 3.45h4.274v4.29H3.01zM7.285 3.45h4.274v4.29H7.285zM11.56 3.45h4.273v4.29H11.56z"/>
                        <path d="M15.833 3.45h4.274v4.29h-4.274zM20.107 3.45h4.274v4.29h-4.274zM24.382 3.45h4.274v4.29h-4.274z"/>
                        <path d="M28.656 3.45h4.274v4.29h-4.274zM32.93 3.45h4.274v4.29H32.93zM37.205 3.45h4.274v4.29h-4.274zM41.48 3.45h4.273v4.29H41.48zM45.753 3.45h4.274v4.29h-4.274zM50.027 3.45h4.274v4.29h-4.274zM54.302 3.45h4.274v4.29h-4.274zM58.576 3.45h4.274v4.29h-4.274zM62.85 3.45h4.274v4.29H62.85zM-1.264-.84H3.01v4.29h-4.274zM3.01-.84h4.274v4.29H3.01zM7.285-.84h4.274v4.29H7.285zM11.56-.84h4.273v4.29H11.56z"/>
                        <path d="M15.833-.84h4.274v4.29h-4.274zM20.107-.84h4.274v4.29h-4.274zM24.382-.84h4.274v4.29h-4.274z"/>
                        <path d="M28.656-.84h4.274v4.29h-4.274zM32.93-.84h4.274v4.29H32.93zM37.205-.84h4.274v4.29h-4.274zM41.48-.84h4.273v4.29H41.48zM45.753-.84h4.274v4.29h-4.274zM50.027-.84h4.274v4.29h-4.274zM54.302-.84h4.274v4.29h-4.274zM58.576-.84h4.274v4.29h-4.274zM62.85-.84h4.274v4.29H62.85zM66.736 37.77h4.274v4.29h-4.274zM66.736 33.48h4.274v4.29h-4.274z"/>
                        <path d="M66.736 29.19h4.274v4.29h-4.274zM66.736 24.9h4.274v4.29h-4.274zM66.736 20.61h4.274v4.29h-4.274zM66.736 16.32h4.274v4.29h-4.274zM66.736 12.03h4.274v4.29h-4.274z"/>
                        <path d="M66.736 7.74h4.274v4.29h-4.274zM66.736 3.45h4.274v4.29h-4.274zM66.736-.84h4.274v4.29h-4.274zM70.622 37.77h4.274v4.29h-4.274zM70.622 33.48h4.274v4.29h-4.274z"/>
                        <path d="M70.622 29.19h4.274v4.29h-4.274zM70.622 24.9h4.274v4.29h-4.274zM70.622 20.61h4.274v4.29h-4.274zM70.622 16.32h4.274v4.29h-4.274zM70.622 12.03h4.274v4.29h-4.274z"/>
                        <path d="M70.622 7.74h4.274v4.29h-4.274zM70.622 3.45h4.274v4.29h-4.274zM70.622-.84h4.274v4.29h-4.274zM74.507 37.77h4.274v4.29h-4.274zM74.507 33.48h4.274v4.29h-4.274z"/>
                        <path d="M74.507 29.19h4.274v4.29h-4.274zM74.507 24.9h4.274v4.29h-4.274zM74.507 20.61h4.274v4.29h-4.274zM74.507 16.32h4.274v4.29h-4.274zM74.507 12.03h4.274v4.29h-4.274z"/>
                        <path d="M74.507 7.74h4.274v4.29h-4.274zM74.507 3.45h4.274v4.29h-4.274zM74.507-.84h4.274v4.29h-4.274zM78.393 37.77h4.274v4.29h-4.274zM78.393 33.48h4.274v4.29h-4.274z"/>
                        <path d="M78.393 29.19h4.274v4.29h-4.274zM78.393 24.9h4.274v4.29h-4.274zM78.393 20.61h4.274v4.29h-4.274zM78.393 16.32h4.274v4.29h-4.274zM78.393 12.03h4.274v4.29h-4.274z"/>
                        <path d="M78.393 7.74h4.274v4.29h-4.274zM78.393 3.45h4.274v4.29h-4.274zM78.393-.84h4.274v4.29h-4.274zM82.28 37.77h4.273v4.29H82.28zM82.28 33.48h4.273v4.29H82.28z"/>
                        <path d="M82.28 29.19h4.273v4.29H82.28zM82.28 24.9h4.273v4.29H82.28zM82.28 20.61h4.273v4.29H82.28zM82.28 16.32h4.273v4.29H82.28zM82.28 12.03h4.273v4.29H82.28z"/>
                        <path d="M82.28 7.74h4.273v4.29H82.28zM82.28 3.45h4.273v4.29H82.28zM82.28-.84h4.273v4.29H82.28z"/>
                    </g>
                </g>
                <path fill="#5F6260" d="M68.44 29.413c-1.858 0-3.364 1.558-3.364 3.482 0 1.922 1.506 3.482 3.364 3.482 1.858 0 3.364-1.56 3.364-3.482 0-1.924-1.506-3.483-3.364-3.483"/>
                <path fill="#FAFAFA" d="M75.764 23.41c-1.04-.613-9.466-2.559-9.466-2.559s-8.246-7.306-15.173-7.715c-6.665-.395-15.177.143-18.146.687l.054-.048-3.788.507s-.261.338-.163.676.686.845.032 2.265l.057-.05c-.843 1.412-1.508 2.949-1.991 3.917-.203.407-2.771 2.491-3.76 8.023-.69 3.851 2.226 5.923 2.226 5.923l53.597.016.924-3.857s-1.534-4.866-1.83-5.326c-.298-.461-1.534-1.844-2.573-2.458"/>
                <path fill="#92C1DB" d="M23.785 32.663c.686 1.55 1.827 2.36 1.827 2.36l53.597.017.558-2.332H24.165c-.137 0-.263-.016-.38-.045"/>
                <path fill="#3D89BA" d="M76.223 32.404c0 .665.52 1.203 1.162 1.203h2.153l.593-2.407h-2.746c-.642 0-1.162.54-1.162 1.204"/>
                <path fill="#92C1DB" d="M77.963 25.343c-1.02-1.171-2.172-1.456-2.172-1.456-1.682.308 1.286 2.867 1.88 3.021.593.153.952-.174.952-.174l-.123-.4a2.728 2.728 0 0 0-.537-.99"/>
                <path fill="#205C8C" d="M30.9 27.95c-2.54 0-4.603 2.134-4.603 4.765 0 2.634 2.063 4.767 4.604 4.767 2.545 0 4.606-2.133 4.606-4.767 0-2.631-2.061-4.765-4.606-4.765"/>
                <path fill="#3D89BA" d="M30.884 29.413c-1.838 0-3.33 1.543-3.33 3.446 0 1.905 1.492 3.448 3.33 3.448 1.84 0 3.332-1.543 3.332-3.448 0-1.903-1.492-3.447-3.332-3.447"/>
                <path fill="#5398C3" d="M34.083 32.31l-2.147.367c.014.068.023.137.023.208 0 .05-.009.104-.015.153l2.126.367a3.428 3.428 0 0 1-.562 1.381l-1.73-1.279c-.067.103-.153.19-.248.267l1.234 1.79c-.39.292-.843.498-1.335.592l-.35-2.17a.895.895 0 0 1-.363.009l-.352 2.18a3.192 3.192 0 0 1-1.373-.555l1.253-1.818c-.1-.072-.19-.165-.261-.27l-1.771 1.31a3.433 3.433 0 0 1-.599-1.417l2.185-.377c-.005-.056-.014-.108-.014-.163 0-.073.009-.148.022-.216L27.6 32.29a3.45 3.45 0 0 1 .572-1.448l1.841 1.359c.07-.098.157-.185.256-.252l-1.316-1.91a3.18 3.18 0 0 1 1.397-.58l.374 2.316c.048-.008.097-.016.146-.016.069 0 .134.008.201.023l.372-2.305c.503.098.964.314 1.359.62l-1.294 1.878c.091.07.174.154.241.252l1.8-1.33c.274.415.46.894.534 1.413zm-3.244-3.223c-1.985 0-3.6 1.673-3.6 3.727 0 2.059 1.615 3.73 3.6 3.73 1.987 0 3.604-1.671 3.604-3.73 0-2.054-1.617-3.726-3.604-3.726z"/>
                <path fill="#6DA9CB" d="M30.917 31.363c-.73 0-1.323.612-1.323 1.37 0 .755.592 1.368 1.323 1.368.73 0 1.323-.613 1.323-1.369 0-.757-.593-1.37-1.323-1.37"/>
                <path fill="#FFF" d="M28.799 20.8c-.958-.04-1.246 1.504-1.246 1.504l39.881 1.52 2.174-.543c-.442-.543-4.106-.894-4.106-.894L28.799 20.8"/>
                <path fill="#92C1DB" d="M62.074 24.971c-.008.295-.012.613-.018.946-.04 2.501-.1 6.28-1.351 6.864-.403.187-4.858.197-20.033-.102-.451 0-.81-.393-.785-.86l.62-11.165 20.74 1.043c.18.19.882 1.079.827 3.274m-.626-3.635l-.05-.039-21.244-1.147-.038.458-.63 11.315c-.033.605.422 1.115 1.005 1.131 4.436.117 10.168.424 12.848.424 4.536 0 7.059-.109 7.527-.328 1.478-.69 1.536-4.314 1.582-7.226.005-.332.01-.649.018-.941.067-2.733-.973-3.61-1.018-3.647"/>
                <path fill="#205C8C" d="M68.502 28.031c-2.54 0-4.604 2.134-4.604 4.765 0 2.634 2.063 4.767 4.604 4.767 2.545 0 4.606-2.133 4.606-4.767 0-2.631-2.061-4.765-4.606-4.765"/>
                <path fill="#3D89BA" d="M68.445 29.087c-1.946 0-3.526 1.635-3.526 3.65 0 2.017 1.58 3.652 3.526 3.652 1.95 0 3.528-1.635 3.528-3.652 0-2.015-1.579-3.65-3.528-3.65"/>
                <path fill="#5398C3" d="M71.763 32.31l-2.147.367c.014.068.023.137.023.208 0 .05-.009.104-.015.153l2.126.367a3.43 3.43 0 0 1-.562 1.381l-1.731-1.279c-.067.103-.152.19-.247.267l1.233 1.79c-.39.292-.842.498-1.334.592l-.35-2.17a.895.895 0 0 1-.364.009l-.352 2.18a3.192 3.192 0 0 1-1.372-.555l1.253-1.818c-.1-.072-.19-.165-.262-.27l-1.77 1.31a3.435 3.435 0 0 1-.6-1.417l2.186-.377c-.005-.056-.014-.108-.014-.163 0-.073.009-.148.021-.216l-2.205-.379a3.45 3.45 0 0 1 .571-1.448l1.842 1.359c.07-.098.156-.185.255-.252l-1.315-1.91c.407-.298.883-.5 1.397-.58l.373 2.316a.892.892 0 0 1 .146-.016c.07 0 .135.008.202.023l.371-2.305c.503.098.965.314 1.36.62l-1.294 1.878c.09.07.174.154.24.252l1.8-1.33c.274.415.46.894.535 1.413zm-3.244-3.223c-1.985 0-3.6 1.673-3.6 3.727 0 2.059 1.615 3.73 3.6 3.73 1.987 0 3.603-1.671 3.603-3.73 0-2.054-1.616-3.726-3.603-3.726z"/>
                <path fill="#6DA9CB" d="M68.44 31.363c-.73 0-1.323.612-1.323 1.37 0 .755.592 1.368 1.323 1.368.73 0 1.322-.613 1.322-1.369 0-.757-.592-1.37-1.322-1.37"/>
                <path fill="#92C1DB" d="M25.912 23.725h-.764l-.392.735-.343.823 1.513-.029a.735.735 0 0 0 .647-.422c.245-.509-.112-1.107-.661-1.107"/>
                <path fill="#ED6C0D" d="M25.284 25.675l-.976.018-.278.726-.245.816 1.512-.03a.74.74 0 0 0 .648-.423c.245-.509-.112-1.107-.661-1.107"/>
                <path fill="#92C1DB" d="M45.376 22.927a.246.246 0 0 1-.243.242v.122l-.01-.122-2.972-.127a.237.237 0 0 1-.169-.08.254.254 0 0 1-.063-.181l.014-.36a.248.248 0 0 1 .252-.24l2.973.125a.241.241 0 0 1 .168.082c.044.05.067.113.065.18l-.015.36zm-.209-.863l-2.992-.126a.484.484 0 0 0-.477.474l-.014.36a.504.504 0 0 0 .125.355c.03.032.069.055.105.078l-.06-.003c1.623.952 3.456.178 3.456.178h-.016a.49.49 0 0 0 .317-.442l.015-.36a.5.5 0 0 0-.127-.355.465.465 0 0 0-.332-.159z"/>
                <path fill="#E3F0F5" d="M34.412 14.746s-1.533.05-3.562 4.968l33.272 1.33s-6.902-5.581-9.623-6.247c-2.721-.665-9.054-1.433-20.087-.05"/>
                <path fill="#DAE8E6" d="M34.304 15.025a.165.165 0 0 1 .055-.013c-.018 0-.036.007-.055.013m.061-.02"/>
                <path fill="#3D89BA" d="M31.03 19.563c1.868-4.397 3.264-4.57 3.29-4.57 4.076-.513 7.855-.771 11.231-.771 4.74 0 7.539.512 8.786.817 2.232.546 7.432 4.542 9.055 5.818l-32.361-1.294zm23.399-4.922c-1.264-.31-4.099-.828-8.878-.828-3.392 0-7.187.26-11.261.771-.17.005-1.718.197-3.738 5.091a.212.212 0 0 0 .015.19.199.199 0 0 0 .16.097l33.271 1.33h.008a.198.198 0 0 0 .186-.135.21.21 0 0 0-.065-.232c-.282-.229-6.966-5.616-9.698-6.284z"/>
                <path fill="#3D89BA" d="M60.523 20.94l3.265.052-3.018-2.305-.247 2.253M59.875 20.929l.314-1.435s-.363-.615-1.22-.751c-.859-.137-1.782-.068-1.881.75-.099.821.198 1.504.627 1.504s.594.136.594.136l.725 1.502s1.946.853 1.781-.273l-.94-1.433M41.053 14.13l-.94 5.939 2.936.188-.116-6.282-1.88.154"/>
                <path fill="#82939C" d="M78.593 14.77l-.015-.026.015.026.8-.308.232.24-.232-.24-.8.308"/>
                <path fill="#6DA9CB" fill-rule="nonzero" d="M41.448 70.2h20.724V78H41.448z"/>
                <path fill="#205C8C" fill-rule="nonzero" d="M28.495 78h46.629v2.6H28.495z"/>
            </g>
        </g>
        <g>
            <path fill="#92C1DB" d="M227.381 107.53c-6.971 11.303-8.217 26.07-2.206 38.017 2.069 4.112 19.772-.667 22.692-2.154 18.57-9.455 24.503-32.056 14.632-49.787-1.032-1.855-15.22.573-17.215 1.048-6.124 1.456-11.819 4.6-15.679 9.643a39.07 39.07 0 0 0-2.224 3.232"/>
            <path fill="#FFFFFE" d="M226.33 146.931l.004.002c.067.047.159.03.205-.038l35.42-51.992a.15.15 0 0 0-.039-.206.147.147 0 0 0-.205.038l-35.419 51.992a.15.15 0 0 0 .035.204"/>
            <path fill="#FFFFFE" d="M246.506 117.258l.278-.132 20.357-9.837a.149.149 0 0 0-.128-.268l-20.199 9.76.604-21.957a.148.148 0 0 0-.144-.153.148.148 0 0 0-.151.144l-.617 22.443M233.841 135.222l29.778-7.37a.149.149 0 0 0-.07-.288l-29.5 7.3-7.214-26.06a.146.146 0 0 0-.181-.102.149.149 0 0 0-.103.182l7.29 26.338"/>
        </g>
        <g>
            <g transform="translate(167.012 66.62)">
                <rect width="69.87" height="143.759" x=".648" fill="url(#f)" rx="8.747"/>
                <rect width="66.376" height="126.228" x="2.394" y="8.766" fill="#BAD9E9" rx="3.499"/>
                <rect width="59.387" height="27.3" x="5.828" y="54.28" fill="#FFF" fill-rule="nonzero" rx="3.502"/>
                <path fill="#ED6C0D" d="M11.015 68.762h1.347v.845c0 .663.285.884.738.884.454 0 .739-.221.739-.884v-2.002c0-.663-.285-.897-.739-.897-.453 0-.738.234-.738.897v.273h-1.347l.26-5.278h3.755v1.3h-2.474l-.116 2.17c.272-.441.686-.662 1.243-.662 1.05 0 1.58.728 1.58 2.08v2.028c0 1.469-.725 2.288-2.124 2.288s-2.124-.82-2.124-2.288v-.754zm4.883 1.56h1.373V71.7h-1.373v-1.378zm2.034-1.56h1.347v.845c0 .663.285.884.738.884s.738-.221.738-.884v-2.002c0-.663-.285-.897-.738-.897s-.738.234-.738.897v.273h-1.347l.259-5.278h3.756v1.3h-2.474l-.117 2.17c.272-.441.687-.662 1.244-.662 1.049 0 1.58.728 1.58 2.08v2.028c0 1.469-.725 2.288-2.124 2.288s-2.124-.82-2.124-2.288v-.754zm6.515-.962v-1.3h2.59v1.3h-2.59zm4.857 1.716v-4.654c0-1.547.686-2.366 2.176-2.366 1.399 0 2.124.819 2.124 2.288v.234h-1.347v-.325c0-.663-.285-.897-.738-.897-.505 0-.79.247-.79 1.118v1.664c.246-.533.686-.806 1.32-.806 1.05 0 1.58.728 1.58 2.08v1.664c0 1.469-.763 2.288-2.162 2.288s-2.163-.82-2.163-2.288zm2.163-2.444c-.453 0-.738.234-.738.897v1.638c0 .663.285.884.738.884s.738-.221.738-.884v-1.638c0-.663-.285-.897-.738-.897zm2.746 3.25h1.373V71.7h-1.373v-1.378zm2.033-1.56h1.347v.845c0 .663.285.884.739.884.453 0 .738-.221.738-.884v-2.002c0-.663-.285-.897-.738-.897-.454 0-.739.234-.739.897v.273h-1.347l.26-5.278h3.756v1.3h-2.474l-.117 2.17c.272-.441.687-.662 1.244-.662 1.049 0 1.58.728 1.58 2.08v2.028c0 1.469-.726 2.288-2.124 2.288-1.4 0-2.125-.82-2.125-2.288v-.754zm6.58 2.938v-9.1h1.425v7.8h2.344v1.3h-3.769zm7.24-9.1l1.451 9.1H50.08l-.246-1.651h-1.748l-.246 1.65H46.53l1.45-9.1h2.086zm-1.113 1.612l-.687 4.602h1.373l-.686-4.602zm5.686 4.095h1.347v1.209c0 1.469-.726 2.288-2.124 2.288-1.4 0-2.125-.82-2.125-2.288v-4.732c0-1.47.726-2.288 2.125-2.288 1.398 0 2.124.819 2.124 2.288v.884h-1.347v-.975c0-.663-.285-.897-.739-.897-.453 0-.738.234-.738.897v4.914c0 .663.285.884.738.884.454 0 .739-.221.739-.884v-1.3zm1.722-3.523c0-1.47.7-2.288 2.099-2.288 1.399 0 2.098.819 2.098 2.288v.286H59.21v-.377c0-.663-.26-.897-.712-.897-.454 0-.713.234-.713.897 0 .624.311 1.079.725 1.495.208.22.428.429.674.637.466.429.907.923 1.179 1.56.142.325.207.702.207 1.13 0 1.47-.725 2.289-2.124 2.289-1.4 0-2.124-.82-2.124-2.288v-.56h1.347v.65c0 .664.285.885.738.885s.738-.221.738-.884c0-.624-.31-1.08-.725-1.508-.207-.208-.428-.416-.66-.637-.48-.416-.92-.91-1.192-1.547-.143-.325-.208-.702-.208-1.131z"/>
                <g transform="translate(5.342 111.74)">
                    <rect width="59.387" height="20.02" x=".68" y=".26" fill="url(#g)" rx="2.854"/>
                    <path fill="#FFF" d="M20.918 6.76h2.15c1.49 0 2.111.689 2.111 2.093v.325c0 .936-.285 1.534-.92 1.833.778.299 1.063.975 1.063 1.95v.741c0 1.404-.725 2.158-2.163 2.158h-2.24v-9.1zm2.111 1.3h-.686v2.405h.557c.53 0 .855-.234.855-.962v-.507c0-.663-.22-.936-.726-.936zm-.051 3.705h-.635v2.795h.816c.48 0 .738-.221.738-.897v-.793c0-.845-.259-1.105-.92-1.105zm2.771 1.911V8.944c0-1.469.765-2.288 2.163-2.288 1.4 0 2.163.819 2.163 2.288v4.732c0 1.469-.764 2.288-2.163 2.288-1.398 0-2.163-.819-2.163-2.288zm1.425-4.823v4.914c0 .663.285.897.738.897.454 0 .739-.234.739-.897V8.853c0-.663-.285-.897-.739-.897-.453 0-.738.234-.738.897zm3.394 4.823V8.944c0-1.469.764-2.288 2.163-2.288 1.399 0 2.163.819 2.163 2.288v4.732c0 1.469-.764 2.288-2.163 2.288-1.4 0-2.163-.819-2.163-2.288zm1.424-4.823v4.914c0 .663.285.897.739.897.453 0 .738-.234.738-.897V8.853c0-.663-.285-.897-.738-.897-.454 0-.739.234-.739.897zm6.762 7.007l-1.386-3.627-.44.832v2.795h-1.426v-9.1h1.425v3.965l1.865-3.965h1.425l-1.982 4.056 1.982 5.044h-1.463z"/>
                </g>
                <g transform="translate(2.072 8.58)">
                    <mask id="i" fill="#fff">
                        <use xlink:href="#h"/>
                    </mask>
                    <use fill="#205C8C" xlink:href="#h"/>
                    <g fill="#205C8C" stroke="#FFF" stroke-width=".792" mask="url(#i)" opacity=".1">
                        <path d="M-1.264 37.77H3.01v4.29h-4.274zM-1.264 33.48H3.01v4.29h-4.274zM3.01 37.77h4.274v4.29H3.01zM3.01 33.48h4.274v4.29H3.01zM7.285 37.77h4.274v4.29H7.285zM7.285 33.48h4.274v4.29H7.285zM11.56 37.77h4.273v4.29H11.56zM11.56 33.48h4.273v4.29H11.56z"/>
                        <path d="M15.833 37.77h4.274v4.29h-4.274zM15.833 33.48h4.274v4.29h-4.274zM20.107 37.77h4.274v4.29h-4.274zM20.107 33.48h4.274v4.29h-4.274zM24.382 37.77h4.274v4.29h-4.274zM24.382 33.48h4.274v4.29h-4.274z"/>
                        <path d="M28.656 37.77h4.274v4.29h-4.274zM28.656 33.48h4.274v4.29h-4.274zM32.93 37.77h4.274v4.29H32.93zM32.93 33.48h4.274v4.29H32.93zM37.205 37.77h4.274v4.29h-4.274zM37.205 33.48h4.274v4.29h-4.274zM41.48 37.77h4.273v4.29H41.48zM41.48 33.48h4.273v4.29H41.48zM45.753 37.77h4.274v4.29h-4.274zM45.753 33.48h4.274v4.29h-4.274zM50.027 37.77h4.274v4.29h-4.274zM50.027 33.48h4.274v4.29h-4.274zM54.302 37.77h4.274v4.29h-4.274zM54.302 33.48h4.274v4.29h-4.274zM58.576 37.77h4.274v4.29h-4.274zM58.576 33.48h4.274v4.29h-4.274zM62.85 37.77h4.274v4.29H62.85zM62.85 33.48h4.274v4.29H62.85zM-1.264 29.19H3.01v4.29h-4.274zM3.01 29.19h4.274v4.29H3.01zM7.285 29.19h4.274v4.29H7.285zM11.56 29.19h4.273v4.29H11.56z"/>
                        <path d="M15.833 29.19h4.274v4.29h-4.274zM20.107 29.19h4.274v4.29h-4.274zM24.382 29.19h4.274v4.29h-4.274z"/>
                        <path d="M28.656 29.19h4.274v4.29h-4.274zM32.93 29.19h4.274v4.29H32.93zM37.205 29.19h4.274v4.29h-4.274zM41.48 29.19h4.273v4.29H41.48zM45.753 29.19h4.274v4.29h-4.274zM50.027 29.19h4.274v4.29h-4.274zM54.302 29.19h4.274v4.29h-4.274zM58.576 29.19h4.274v4.29h-4.274zM62.85 29.19h4.274v4.29H62.85zM-1.264 24.9H3.01v4.29h-4.274zM3.01 24.9h4.274v4.29H3.01zM7.285 24.9h4.274v4.29H7.285zM11.56 24.9h4.273v4.29H11.56z"/>
                        <path d="M15.833 24.9h4.274v4.29h-4.274zM20.107 24.9h4.274v4.29h-4.274zM24.382 24.9h4.274v4.29h-4.274z"/>
                        <path d="M28.656 24.9h4.274v4.29h-4.274zM32.93 24.9h4.274v4.29H32.93zM37.205 24.9h4.274v4.29h-4.274zM41.48 24.9h4.273v4.29H41.48zM45.753 24.9h4.274v4.29h-4.274zM50.027 24.9h4.274v4.29h-4.274zM54.302 24.9h4.274v4.29h-4.274zM58.576 24.9h4.274v4.29h-4.274zM62.85 24.9h4.274v4.29H62.85zM-1.264 20.61H3.01v4.29h-4.274zM3.01 20.61h4.274v4.29H3.01zM7.285 20.61h4.274v4.29H7.285zM11.56 20.61h4.273v4.29H11.56z"/>
                        <path d="M15.833 20.61h4.274v4.29h-4.274zM20.107 20.61h4.274v4.29h-4.274zM24.382 20.61h4.274v4.29h-4.274z"/>
                        <path d="M28.656 20.61h4.274v4.29h-4.274zM32.93 20.61h4.274v4.29H32.93zM37.205 20.61h4.274v4.29h-4.274zM41.48 20.61h4.273v4.29H41.48zM45.753 20.61h4.274v4.29h-4.274zM50.027 20.61h4.274v4.29h-4.274zM54.302 20.61h4.274v4.29h-4.274zM58.576 20.61h4.274v4.29h-4.274zM62.85 20.61h4.274v4.29H62.85zM-1.264 16.32H3.01v4.29h-4.274zM3.01 16.32h4.274v4.29H3.01zM7.285 16.32h4.274v4.29H7.285zM11.56 16.32h4.273v4.29H11.56z"/>
                        <path d="M15.833 16.32h4.274v4.29h-4.274zM20.107 16.32h4.274v4.29h-4.274zM24.382 16.32h4.274v4.29h-4.274z"/>
                        <path d="M28.656 16.32h4.274v4.29h-4.274zM32.93 16.32h4.274v4.29H32.93zM37.205 16.32h4.274v4.29h-4.274zM41.48 16.32h4.273v4.29H41.48zM45.753 16.32h4.274v4.29h-4.274zM50.027 16.32h4.274v4.29h-4.274zM54.302 16.32h4.274v4.29h-4.274zM58.576 16.32h4.274v4.29h-4.274zM62.85 16.32h4.274v4.29H62.85zM-1.264 12.03H3.01v4.29h-4.274zM3.01 12.03h4.274v4.29H3.01zM7.285 12.03h4.274v4.29H7.285zM11.56 12.03h4.273v4.29H11.56z"/>
                        <path d="M15.833 12.03h4.274v4.29h-4.274zM20.107 12.03h4.274v4.29h-4.274zM24.382 12.03h4.274v4.29h-4.274z"/>
                        <path d="M28.656 12.03h4.274v4.29h-4.274zM32.93 12.03h4.274v4.29H32.93zM37.205 12.03h4.274v4.29h-4.274zM41.48 12.03h4.273v4.29H41.48zM45.753 12.03h4.274v4.29h-4.274zM50.027 12.03h4.274v4.29h-4.274zM54.302 12.03h4.274v4.29h-4.274zM58.576 12.03h4.274v4.29h-4.274zM62.85 12.03h4.274v4.29H62.85zM-1.264 7.74H3.01v4.29h-4.274zM3.01 7.74h4.274v4.29H3.01zM7.285 7.74h4.274v4.29H7.285zM11.56 7.74h4.273v4.29H11.56z"/>
                        <path d="M15.833 7.74h4.274v4.29h-4.274zM20.107 7.74h4.274v4.29h-4.274zM24.382 7.74h4.274v4.29h-4.274z"/>
                        <path d="M28.656 7.74h4.274v4.29h-4.274zM32.93 7.74h4.274v4.29H32.93zM37.205 7.74h4.274v4.29h-4.274zM41.48 7.74h4.273v4.29H41.48zM45.753 7.74h4.274v4.29h-4.274zM50.027 7.74h4.274v4.29h-4.274zM54.302 7.74h4.274v4.29h-4.274zM58.576 7.74h4.274v4.29h-4.274zM62.85 7.74h4.274v4.29H62.85zM-1.264 3.45H3.01v4.29h-4.274zM3.01 3.45h4.274v4.29H3.01zM7.285 3.45h4.274v4.29H7.285zM11.56 3.45h4.273v4.29H11.56z"/>
                        <path d="M15.833 3.45h4.274v4.29h-4.274zM20.107 3.45h4.274v4.29h-4.274zM24.382 3.45h4.274v4.29h-4.274z"/>
                        <path d="M28.656 3.45h4.274v4.29h-4.274zM32.93 3.45h4.274v4.29H32.93zM37.205 3.45h4.274v4.29h-4.274zM41.48 3.45h4.273v4.29H41.48zM45.753 3.45h4.274v4.29h-4.274zM50.027 3.45h4.274v4.29h-4.274zM54.302 3.45h4.274v4.29h-4.274zM58.576 3.45h4.274v4.29h-4.274zM62.85 3.45h4.274v4.29H62.85zM-1.264-.84H3.01v4.29h-4.274zM3.01-.84h4.274v4.29H3.01zM7.285-.84h4.274v4.29H7.285zM11.56-.84h4.273v4.29H11.56z"/>
                        <path d="M15.833-.84h4.274v4.29h-4.274zM20.107-.84h4.274v4.29h-4.274zM24.382-.84h4.274v4.29h-4.274z"/>
                        <path d="M28.656-.84h4.274v4.29h-4.274zM32.93-.84h4.274v4.29H32.93zM37.205-.84h4.274v4.29h-4.274zM41.48-.84h4.273v4.29H41.48zM45.753-.84h4.274v4.29h-4.274zM50.027-.84h4.274v4.29h-4.274zM54.302-.84h4.274v4.29h-4.274zM58.576-.84h4.274v4.29h-4.274zM62.85-.84h4.274v4.29H62.85z"/>
                    </g>
                </g>
                <path fill="#5F6260" d="M49.334 34.621c-1.604 0-2.905 1.312-2.905 2.933 0 1.618 1.3 2.932 2.905 2.932 1.605 0 2.906-1.314 2.906-2.932 0-1.62-1.301-2.933-2.906-2.933"/>
                <path fill="#5F6260" d="M49.334 34.621c-1.604 0-2.905 1.312-2.905 2.933 0 1.618 1.3 2.932 2.905 2.932 1.605 0 2.906-1.314 2.906-2.932 0-1.62-1.301-2.933-2.906-2.933"/>
                <path fill="#FAFAFA" d="M55.66 29.567c-.898-.517-8.176-2.155-8.176-2.155s-7.121-6.153-13.103-6.498c-5.757-.332-13.108.12-15.672.58l.047-.042-3.272.427s-.226.285-.141.57c.085.284.592.711.028 1.907l.049-.042c-.728 1.189-1.302 2.483-1.72 3.299-.175.342-2.393 2.098-3.247 6.756-.595 3.243 1.923 4.988 1.923 4.988l46.288.013.798-3.248s-1.325-4.097-1.58-4.485c-.257-.388-1.326-1.553-2.223-2.07"/>
                <path fill="#92C1DB" d="M10.769 37.358c.592 1.305 1.577 1.988 1.577 1.988l46.289.014.482-1.964h-48.02c-.119 0-.227-.013-.328-.038"/>
                <path fill="#3D89BA" d="M56.056 37.14c0 .56.45 1.013 1.004 1.013h1.858l.513-2.027H57.06a1.01 1.01 0 0 0-1.004 1.014"/>
                <path fill="#92C1DB" d="M57.558 31.195c-.88-.987-1.876-1.227-1.876-1.227-1.452.26 1.111 2.414 1.624 2.544.513.129.823-.146.823-.146l-.107-.337a2.28 2.28 0 0 0-.464-.834"/>
                <path fill="#205C8C" d="M16.914 33.39c-2.195 0-3.976 1.796-3.976 4.012 0 2.218 1.781 4.015 3.976 4.015 2.198 0 3.978-1.797 3.978-4.015 0-2.216-1.78-4.013-3.978-4.013"/>
                <path fill="#3D89BA" d="M16.899 34.621c-1.587 0-2.876 1.3-2.876 2.902 0 1.604 1.289 2.904 2.876 2.904 1.59 0 2.878-1.3 2.878-2.904 0-1.602-1.288-2.902-2.878-2.902"/>
                <path fill="#5398C3" d="M19.662 37.06l-1.854.31c.012.058.02.115.02.175 0 .043-.008.088-.013.129l1.836.31a2.847 2.847 0 0 1-.485 1.162L17.67 38.07a.98.98 0 0 1-.214.225l1.066 1.507c-.337.246-.728.42-1.153.499l-.301-1.827a.792.792 0 0 1-.315.007l-.304 1.835a2.796 2.796 0 0 1-1.186-.467l1.083-1.53a.918.918 0 0 1-.226-.228l-1.53 1.103A2.853 2.853 0 0 1 14.074 38l1.887-.318c-.004-.046-.012-.09-.012-.137 0-.061.008-.124.02-.182l-1.905-.318c.069-.45.241-.864.493-1.22l1.59 1.144a.881.881 0 0 1 .22-.212l-1.135-1.608a2.785 2.785 0 0 1 1.206-.488l.323 1.95a.79.79 0 0 1 .126-.014c.06 0 .116.007.174.02l.321-1.941c.434.082.833.264 1.173.521l-1.117 1.582a.95.95 0 0 1 .209.212l1.553-1.12c.237.35.397.753.462 1.19zm-2.802-2.713c-1.713 0-3.108 1.408-3.108 3.138 0 1.734 1.395 3.142 3.108 3.142 1.717 0 3.113-1.408 3.113-3.142 0-1.73-1.396-3.138-3.113-3.138z"/>
                <path fill="#6DA9CB" d="M16.928 36.263c-.631 0-1.143.516-1.143 1.154 0 .636.512 1.152 1.143 1.152.63 0 1.142-.516 1.142-1.152 0-.638-.511-1.154-1.142-1.154"/>
                <path fill="#FFF" d="M15.099 27.37c-.828-.035-1.076 1.265-1.076 1.265l34.443 1.28 1.877-.458c-.382-.457-3.547-.752-3.547-.752L15.1 27.369"/>
                <path fill="#92C1DB" d="M43.836 30.881c-.006.248-.01.516-.015.797-.035 2.106-.086 5.287-1.167 5.78-.348.157-4.196.165-17.301-.086-.39 0-.7-.332-.678-.724l.535-9.403 17.912.879c.156.16.761.908.714 2.757m-.54-3.061l-.043-.033-18.348-.966-.033.386-.543 9.528a.897.897 0 0 0 .868.953c3.83.098 8.78.357 11.095.357 3.917 0 6.097-.092 6.501-.277 1.276-.581 1.326-3.633 1.366-6.085l.015-.792c.059-2.302-.84-3.04-.878-3.071"/>
                <path fill="#205C8C" d="M49.388 33.458c-2.195 0-3.976 1.797-3.976 4.012 0 2.218 1.781 4.015 3.976 4.015 2.197 0 3.978-1.797 3.978-4.015 0-2.215-1.78-4.012-3.978-4.012"/>
                <path fill="#3D89BA" d="M49.339 34.347c-1.681 0-3.046 1.377-3.046 3.074 0 1.698 1.365 3.075 3.046 3.075 1.683 0 3.046-1.377 3.046-3.075 0-1.697-1.363-3.074-3.046-3.074"/>
                <path fill="#5398C3" d="M52.204 37.06l-1.854.31c.012.058.02.115.02.175 0 .043-.008.088-.014.129l1.837.31a2.849 2.849 0 0 1-.486 1.162l-1.495-1.077a.982.982 0 0 1-.213.225l1.065 1.507c-.336.246-.727.42-1.152.499l-.302-1.827a.792.792 0 0 1-.314.007l-.305 1.835a2.796 2.796 0 0 1-1.185-.467l1.082-1.53a.92.92 0 0 1-.226-.228l-1.529 1.103A2.855 2.855 0 0 1 46.616 38l1.887-.318c-.004-.046-.012-.09-.012-.137 0-.061.008-.124.019-.182l-1.905-.318c.07-.45.242-.864.494-1.22l1.59 1.144a.881.881 0 0 1 .22-.212l-1.136-1.608a2.783 2.783 0 0 1 1.207-.488l.322 1.95c.042-.007.085-.014.127-.014.06 0 .116.007.173.02l.321-1.941c.435.082.833.264 1.174.521L49.98 36.78a.95.95 0 0 1 .208.212l1.554-1.12c.237.35.397.753.462 1.19zm-2.802-2.713c-1.714 0-3.109 1.408-3.109 3.138 0 1.734 1.395 3.142 3.109 3.142 1.716 0 3.112-1.408 3.112-3.142 0-1.73-1.396-3.138-3.112-3.138z"/>
                <path fill="#6DA9CB" d="M49.334 36.263c-.631 0-1.143.516-1.143 1.154 0 .636.512 1.152 1.143 1.152.63 0 1.142-.516 1.142-1.152 0-.638-.511-1.154-1.142-1.154"/>
                <path fill="#92C1DB" d="M12.605 29.832h-.66l-.338.618-.296.694 1.306-.025a.644.644 0 0 0-.012-1.288"/>
                <path fill="#ED6C0D" d="M12.063 31.474l-.843.015-.24.611-.211.687 1.306-.024a.644.644 0 0 0-.012-1.29"/>
                <path fill="#92C1DB" d="M29.416 29.227c-.005.125-.097.22-.21.22v.112l-.009-.111-2.567-.116a.201.201 0 0 1-.146-.074.239.239 0 0 1-.055-.164l.012-.327a.22.22 0 0 1 .218-.219l2.568.114c.056.003.108.03.145.074a.241.241 0 0 1 .056.164l-.012.327zm-.18-.785l-2.585-.116c-.222 0-.404.19-.412.432l-.013.327a.474.474 0 0 0 .109.324c.026.03.059.05.09.071l-.052-.003c1.402.868 2.985.163 2.985.163h-.014a.446.446 0 0 0 .275-.402l.012-.329a.47.47 0 0 0-.11-.322.394.394 0 0 0-.286-.145z"/>
                <path fill="#E3F0F5" d="M19.947 22.27s-1.325.043-3.077 4.184l28.735 1.12s-5.96-4.7-8.31-5.26c-2.35-.56-7.82-1.208-17.348-.043"/>
                <path fill="#DAE8E6" d="M19.853 22.543c.018-.007.037-.013.055-.013-.018 0-.036.006-.055.013m.061-.02"/>
                <path fill="#3D89BA" d="M17.026 26.327c1.612-3.703 2.818-3.848 2.84-3.85 3.521-.43 6.785-.648 9.7-.648 4.093 0 6.511.431 7.589.688 1.927.46 6.418 3.825 7.82 4.9l-27.949-1.09zm20.207-4.145c-1.091-.261-3.539-.698-7.666-.698-2.93 0-6.207.22-9.726.65-.147.004-1.484.166-3.228 4.287a.174.174 0 0 0 .15.241l28.735 1.121h.006a.171.171 0 0 0 .161-.114.175.175 0 0 0-.055-.195c-.245-.193-6.017-4.73-8.377-5.292z"/>
                <path fill="#3D89BA" d="M42.497 27.486l2.82.044-2.607-1.94-.213 1.896M41.937 27.477l.27-1.209s-.312-.517-1.053-.632c-.74-.115-1.538-.057-1.624.632-.085.691.171 1.266.542 1.266.37 0 .512.115.512.115l.627 1.265s1.68.718 1.538-.23l-.812-1.207M25.682 21.751l-.812 5.002 2.535.158-.1-5.29-1.623.13"/>
                <path fill="#82939C" d="M58.103 22.29l-.014-.022.014.022.69-.258.201.2-.2-.2-.691.258"/>
                <path fill="#92C1DB" d="M10.769 37.358c.592 1.305 1.577 1.988 1.577 1.988l46.289.014.482-1.964h-48.02c-.119 0-.227-.013-.328-.038"/>
                <path fill="#3D89BA" d="M56.056 37.14c0 .56.45 1.013 1.004 1.013h1.858l.513-2.027H57.06a1.01 1.01 0 0 0-1.004 1.014"/>
                <path fill="#92C1DB" d="M57.558 31.195c-.88-.987-1.876-1.227-1.876-1.227-1.452.26 1.111 2.414 1.624 2.544.513.129.823-.146.823-.146l-.107-.337a2.28 2.28 0 0 0-.464-.834"/>
                <path fill="#205C8C" d="M16.914 33.39c-2.195 0-3.976 1.796-3.976 4.012 0 2.218 1.781 4.015 3.976 4.015 2.198 0 3.978-1.797 3.978-4.015 0-2.216-1.78-4.013-3.978-4.013"/>
                <path fill="#3D89BA" d="M16.899 34.621c-1.587 0-2.876 1.3-2.876 2.902 0 1.604 1.289 2.904 2.876 2.904 1.59 0 2.878-1.3 2.878-2.904 0-1.602-1.288-2.902-2.878-2.902"/>
                <path fill="#5398C3" d="M19.662 37.06l-1.854.31c.012.058.02.115.02.175 0 .043-.008.088-.013.129l1.836.31a2.847 2.847 0 0 1-.485 1.162L17.67 38.07a.98.98 0 0 1-.214.225l1.066 1.507c-.337.246-.728.42-1.153.499l-.301-1.827a.792.792 0 0 1-.315.007l-.304 1.835a2.796 2.796 0 0 1-1.186-.467l1.083-1.53a.918.918 0 0 1-.226-.228l-1.53 1.103A2.853 2.853 0 0 1 14.074 38l1.887-.318c-.004-.046-.012-.09-.012-.137 0-.061.008-.124.02-.182l-1.905-.318c.069-.45.241-.864.493-1.22l1.59 1.144a.881.881 0 0 1 .22-.212l-1.135-1.608a2.785 2.785 0 0 1 1.206-.488l.323 1.95a.79.79 0 0 1 .126-.014c.06 0 .116.007.174.02l.321-1.941c.434.082.833.264 1.173.521l-1.117 1.582a.95.95 0 0 1 .209.212l1.553-1.12c.237.35.397.753.462 1.19zm-2.802-2.713c-1.713 0-3.108 1.408-3.108 3.138 0 1.734 1.395 3.142 3.108 3.142 1.717 0 3.113-1.408 3.113-3.142 0-1.73-1.396-3.138-3.113-3.138z"/>
                <path fill="#6DA9CB" d="M16.928 36.263c-.631 0-1.143.516-1.143 1.154 0 .636.512 1.152 1.143 1.152.63 0 1.142-.516 1.142-1.152 0-.638-.511-1.154-1.142-1.154"/>
                <path fill="#E3F0F5" d="M15.099 27.37c-.828-.035-1.076 1.265-1.076 1.265l34.443 1.28 1.877-.458c-.382-.457-3.547-.752-3.547-.752L15.1 27.369"/>
                <path fill="#92C1DB" d="M43.836 30.881c-.006.248-.01.516-.015.797-.035 2.106-.086 5.287-1.167 5.78-.348.157-4.196.165-17.301-.086-.39 0-.7-.332-.678-.724l.535-9.403 17.912.879c.156.16.761.908.714 2.757m-.54-3.061l-.043-.033-18.348-.966-.033.386-.543 9.528a.897.897 0 0 0 .868.953c3.83.098 8.78.357 11.095.357 3.917 0 6.097-.092 6.501-.277 1.276-.581 1.326-3.633 1.366-6.085l.015-.792c.059-2.302-.84-3.04-.878-3.071"/>
                <path fill="#205C8C" d="M49.388 33.458c-2.195 0-3.976 1.797-3.976 4.012 0 2.218 1.781 4.015 3.976 4.015 2.197 0 3.978-1.797 3.978-4.015 0-2.215-1.78-4.012-3.978-4.012"/>
                <path fill="#3D89BA" d="M49.339 34.347c-1.681 0-3.046 1.377-3.046 3.074 0 1.698 1.365 3.075 3.046 3.075 1.683 0 3.046-1.377 3.046-3.075 0-1.697-1.363-3.074-3.046-3.074"/>
                <path fill="#5398C3" d="M52.204 37.06l-1.854.31c.012.058.02.115.02.175 0 .043-.008.088-.014.129l1.837.31a2.849 2.849 0 0 1-.486 1.162l-1.495-1.077a.982.982 0 0 1-.213.225l1.065 1.507c-.336.246-.727.42-1.152.499l-.302-1.827a.792.792 0 0 1-.314.007l-.305 1.835a2.796 2.796 0 0 1-1.185-.467l1.082-1.53a.92.92 0 0 1-.226-.228l-1.529 1.103A2.855 2.855 0 0 1 46.616 38l1.887-.318c-.004-.046-.012-.09-.012-.137 0-.061.008-.124.019-.182l-1.905-.318c.07-.45.242-.864.494-1.22l1.59 1.144a.881.881 0 0 1 .22-.212l-1.136-1.608a2.783 2.783 0 0 1 1.207-.488l.322 1.95c.042-.007.085-.014.127-.014.06 0 .116.007.173.02l.321-1.941c.435.082.833.264 1.174.521L49.98 36.78a.95.95 0 0 1 .208.212l1.554-1.12c.237.35.397.753.462 1.19zm-2.802-2.713c-1.714 0-3.109 1.408-3.109 3.138 0 1.734 1.395 3.142 3.109 3.142 1.716 0 3.112-1.408 3.112-3.142 0-1.73-1.396-3.138-3.112-3.138z"/>
                <path fill="#6DA9CB" d="M49.334 36.263c-.631 0-1.143.516-1.143 1.154 0 .636.512 1.152 1.143 1.152.63 0 1.142-.516 1.142-1.152 0-.638-.511-1.154-1.142-1.154"/>
                <path fill="#92C1DB" d="M12.605 29.832h-.66l-.338.618-.296.694 1.306-.025a.644.644 0 0 0-.012-1.288"/>
                <path fill="#ED6C0D" d="M12.063 31.474l-.843.015-.24.611-.211.687 1.306-.024a.644.644 0 0 0-.012-1.29"/>
                <path fill="#92C1DB" d="M29.416 29.227c-.005.125-.097.22-.21.22v.112l-.009-.111-2.567-.116a.201.201 0 0 1-.146-.074.239.239 0 0 1-.055-.164l.012-.327a.22.22 0 0 1 .218-.219l2.568.114c.056.003.108.03.145.074a.241.241 0 0 1 .056.164l-.012.327zm-.18-.785l-2.585-.116c-.222 0-.404.19-.412.432l-.013.327a.474.474 0 0 0 .109.324c.026.03.059.05.09.071l-.052-.003c1.402.868 2.985.163 2.985.163h-.014a.446.446 0 0 0 .275-.402l.012-.329a.47.47 0 0 0-.11-.322.394.394 0 0 0-.286-.145z"/>
                <path fill="#E3F0F5" d="M19.947 22.27s-1.325.043-3.077 4.184l28.735 1.12s-5.96-4.7-8.31-5.26c-2.35-.56-7.82-1.208-17.348-.043"/>
                <path fill="#DAE8E6" d="M19.853 22.588c.022-.008.044-.015.065-.015-.021 0-.043.007-.065.015m.073-.023"/>
                <path fill="#3D89BA" d="M17.026 26.327c1.612-3.703 2.818-3.848 2.84-3.85 3.521-.43 6.785-.648 9.7-.648 4.093 0 6.511.431 7.589.688 1.927.46 6.418 3.825 7.82 4.9l-27.949-1.09zm20.207-4.145c-1.091-.261-3.539-.698-7.666-.698-2.93 0-6.207.22-9.726.65-.147.004-1.484.166-3.228 4.287a.174.174 0 0 0 .15.241l28.735 1.121h.006a.171.171 0 0 0 .161-.114.175.175 0 0 0-.055-.195c-.245-.193-6.017-4.73-8.377-5.292z"/>
                <path fill="#3D89BA" d="M42.497 27.486l2.82.044-2.607-1.94-.213 1.896M41.937 27.477l.27-1.209s-.312-.517-1.053-.632c-.74-.115-1.538-.057-1.624.632-.085.691.171 1.266.542 1.266.37 0 .512.115.512.115l.627 1.265s1.68.718 1.538-.23l-.812-1.207M25.682 21.751l-.812 5.002 2.535.158-.1-5.29-1.623.13"/>
                <path fill="#82939C" d="M58.103 22.29l-.014-.022.014.022.69-.258.201.2-.2-.2-.691.258"/>
                <rect width="13.974" height="1.753" x="28.595" y="3.506" fill="#5398C3" rx=".875"/>
                <rect width="1.747" height="1.753" x="44.316" y="3.506" fill="#BAD9E9" rx=".873"/>
            </g>
            <g transform="translate(172.9 152.75)">
                <rect width="59.389" height="21.038" fill="#E3F0F5" rx="3.499"/>
                <rect width="13.974" height="14.025" x="3.493" y="3.506" fill="#5398C3" rx="1.749"/>
                <path stroke="#FFF3E0" stroke-linecap="round" stroke-width=".875" d="M6.987 10.72l1.931 2.18a.437.437 0 0 0 .62.035l5.593-5.046"/>
                <path fill="#BAD9E9" d="M20.961 5.259h34.935v3.506H20.961zM20.961 12.272h27.948v3.506H20.961z"/>
            </g>
        </g>
        <g>
            <path fill="#F0AC87" d="M157.452 94.26l-11.431 1.641-.069-.446 11.648-7.658-.148 6.463"/>
            <path fill="#E3520B" d="M158.301 95.214c-.243.598-.66 1.143-1.156 1.48-.328.223-.715.38-1.115.406l-2.666.174-3.797.248c-1.195.079-2.386.417-3.552.008-.606-.213-2.738-1.022-2.808-1.794-.025-.28.216-.538.492-.595 2.07.251 4.697.032 6.262-.32 4.037-.696 3.573-1.31 8.508-1.536l.062.752c.012.387-.074.793-.23 1.177"/>
            <path fill="#E3520B" d="M157.126 96.439l-2.247 4.78-.82-.32 1.228-4.998z"/>
            <path fill="#12406D" d="M200.389 63.202l-23.538 3.566c-2.558.564-3.42.172-4.786 2.414l-14.543 24.49-6.077-2.993 14.576-32.514a5.844 5.844 0 0 1 4.267-3.374l28.991-5.405 1.11 13.816"/>
            <path fill="#F0AC87" d="M162.173 107.77l-10.539 4.734-.189-.41 9.096-10.578 1.632 6.253"/>
            <path fill="#E3520B" d="M163.096 108.904c-.07.642-.32 1.28-.704 1.742a2.283 2.283 0 0 1-.96.697l-2.516.905-3.583 1.288c-1.127.405-2.18 1.059-3.412.988-.64-.037-2.913-.226-3.192-.95-.1-.262.06-.576.31-.707 2.06-.33 4.524-1.267 5.932-2.037 3.69-1.785 3.075-2.247 7.757-3.827l.267.706c.116.369.146.783.101 1.195"/>
            <path fill="#E3520B" d="M162.3 109.747l-1.875 5.613-.74-.089.88-5.352 1.736-.172"/>
            <path fill="#286B9E" d="M209.537 46.782c-.462-.057-1.443 7.09-1.598 7.731-2.332 9.628-12.495 12.404-19.65 17.768-3 2.249-3.754 2.979-6.232 5.755-2.49 2.788-3.053 4.64-5.33 7.621-.734.958-12.666 20.404-13.73 20.05l-6.058-2.008c4.69-8.156 14.473-27.23 20.046-36.508a7.75 7.75 0 0 1 .874-1.178c3.713-4.15 5.774-6.9 9.045-10.28 1.416-1.715 3.055-2.848 4.86-4.442.95-.94 3.55-2.34 4.266-4.502-.04-.309 13.333-.04 13.507-.007"/>
            <path fill="#E3520B" d="M188.193 38.393l11.282-17.457-1.077-.952c-.6-.53-1.476-.776-2.415-.778-2.103-.007-4.01 1.25-5.073 4.15l-6.505 12.805 3.788 2.232"/>
            <path fill="#12406D" d="M196.518.036s-6.219-1.62-2.898 16.78c.12.665-.358 1.356-.21 2.074.107.526.568.912 1.103.913 2.29.005 4.883-.641 4.883-.641-.178-1.458-2.878-19.126-2.878-19.126"/>
            <path fill="#D38470" d="M200.444 19.81h-5.053s1.301-4.424.94-6.092c.722.073 4.113-1.239 4.113-1.239v7.33z"/>
            <path fill="#EBA17F" d="M192.658 7.257c.113 2.011.907 5.503 2.65 6.777 1.539 1.125 3.917-.31 5.19-1.31 1.687-1.328 2.657-3.266 3.146-5.328 0-4.084-2.363-7.396-5.278-7.396-2.442 0-4.412 2.077-5.26 4.218-.384.973-.506 2.003-.448 3.04"/>
            <path fill="#ED6C0D" d="M209.537 47.021l-2.319-23.489c-.084-.833-.354-1.605-.77-2.2-1.135-1.622-4.276-4.87-6.422-4.87 0 0-1.217 1.234-3.834.793-.305.18-2.602 6.041-2.924 6.798-2.006 4.724 1.361 3.14 2.568 12.737l-.445 11.248c9.432-.602 14.148-.941 14.146-1.017z"/>
            <path fill="#12406D" d="M196.623 4.98c-.207.233-.862 1.856-3.979 1.941-.473-1.88-.14-7.4 6.084-6.888 3.793.729 5.905 2.224 7.277 9.13.163.824.223 1.67.16 2.51-.156 2.152-.567 3.778-1.303 5.349a3.972 3.972 0 0 0-.397 1.731c.006.472.113.783.486 1.077.545.82-2.438 1.19-4.857.287a.866.866 0 0 1-.547-.979c.258-1.319.417-3.944.717-6.291.277-2.161.742-4.073 0-4.818-.298-.126-1.473-.358-2.52-1.108-.368-.263-.742-.91-1.121-1.942z"/>
            <path fill="#FA8B10" d="M199.605 46.12c.719 0 1.434-.184 2.087-.55 1.186-.663 1.964-1.878 2.165-3.225l2.512-16.815a3.117 3.117 0 0 0-2.614-3.546 3.111 3.111 0 0 0-3.536 2.622l-2.15 14.401-9.302-2.418-1.616 3.635 10.705 5.519a4.274 4.274 0 0 0 1.75.376"/>
            <path fill="#12406D" d="M185.174 42.094l8.847 1.69a.948.948 0 0 0 1.124-.932V30.078a.95.95 0 0 0-.77-.934l-8.846-1.69a.948.948 0 0 0-1.124.933v12.774c0 .457.322.848.77.933"/>
            <path fill="#FFFFFE" d="M187.151 31.078a.896.896 0 0 0 1.79 0c0-.495-.4-.898-.894-.898a.897.897 0 0 0-.896.898"/>
            <path fill="#EBA17F" d="M184.408 38.84l1.997-2.314c.447-.554.654-1.113.569-2.197-.094-1.2-1.046-1.83-1.648-1.083l-.742.92c-.129.16-.194.407-.176.664v3.802c-.034.184-.034.254 0 .208z"/>
        </g>
        <g>
            <path fill="#FFF3E0" d="M169.205 198.816c-.765.255-.962-.465-1.66-.984-1.007-.6-.907-1.13-2.158-.168l.809-.045a.48.48 0 0 1 .495.359c.074.303-.141.588-.424.601l-2.57.144h-.06a.587.587 0 0 0-.368.073c-.242.15-.489.305-.744.467-.582-1.202-.904-1.756-1.401-2.987 2.017-.641 3.649-1.987 5.78-1.691.268.037.52.341.714.52.437.401.804.86 1.167 1.332.244.317.476.652.617 1.031.14.374.302 1.182-.197 1.348"/>
            <path fill="#BAD9E9" d="M140.679 185.999c.023.058.045.115.066.174.864 2.342 1.849 4.633 2.847 6.917.727 1.665 1.393 4.512 3.117 5.353 2.22 1.084 5.011-.191 7.145-.93 2.646-.919 5.382-1.541 8.08-2.276.287-.077.58.1.656.397l.942 3.7a.67.67 0 0 1-.457.816l-1.278.35c-2.992.82-5.977 1.67-8.926 2.643-3.958 1.305-7.964 2.005-11.52-.726-4.134-3.173-5.974-8.804-8.415-13.327-1.562-2.894 2.67-6.692 5.24-5.917 1.226.37 2.018 1.588 2.503 2.826"/>
            <path fill="#FFE0B3" d="M140.465 183.337l-4.341-2.579 4.009-7.34 2.525 3.017-2.193 6.902"/>
            <path fill="#FFE0B3" d="M147.902 175.294a5.383 5.383 0 0 1-2.518 3.279 5.417 5.417 0 0 1-4.109.534c-2.885-.773-5.024-4.967-4.252-7.85l1.35-5.258 11.215 3.005-1.686 6.29z"/>
            <path fill="#12406D" d="M143.969 163.137l7.98 2.138c-1.071 3.996-2.384 3.716-2.384 3.716l-6.808-1.824a1.636 1.636 0 0 0-1.32.138c-.4.23-.684.62-.78 1.07l-.433 1.616-.834-.224s-.155-.75-.603-.87c-.325-.087-.749-.2-1.037.877-.773 2.882.696 3.072.696 3.072l-.46 3.536c-2.156-1.974-1.13-6.487-1.13-6.487l1.091-4.076c1.251-4.669 6.022-2.682 6.022-2.682z"/>
            <path fill="#000" d="M146.567 170.333l-.461 3.955s-1.218.986-1.802-.64l1.393.374.87-3.69z" opacity=".1"/>
            <path fill="#BAD9E9" d="M137.46 178.105l4.275 1.616.727 2.298-.554-.474-5.904-.608s1.16-2.796 1.455-2.832"/>
            <path fill="#F0AC87" d="M122.738 274.287l-3.499-1.618 1.561-3.629 3.498 1.619-1.56 3.628"/>
            <path fill="#12406D" d="M131.747 277.387c-.363-.55-2.438-.7-3.118-.951-2.207-.815-3.128-.85-4.802-2.545-.425-.431-3.966-2.178-4.222-2.225-.478-.088-1.473 2.219-1.285 3.206l-.241 1.02.03.102 2.658 1.486.099-.032.256-.42a19.082 19.082 0 0 0 4.925 1.978c1.428.351 2.918.56 4.388.54.916-.012.98.102 1.32-.626.143-.306.187-1.236-.008-1.533"/>
            <path fill="#F0AC87" d="M145.237 276.047l-3.787-.6.578-3.928 3.787.6-.578 3.928"/>
            <path fill="#12406D" d="M154.715 276.558c-.49-.43-2.529-.005-3.248-.06-2.336-.18-3.233.042-5.281-1.134-.52-.298-4.38-1.01-4.64-.985-.483.047-.853 2.545-.42 3.446l.028 1.05.056.09 2.943.701.086-.058.14-.476c1.716.431 3.49.618 5.254.554 1.467-.053 2.957-.262 4.37-.685.88-.264.97-.17 1.112-.967.06-.334-.135-1.243-.4-1.476"/>
            <path fill="#337CAF" d="M145.293 210.724l-.015.216-.022.29-.03.351c-.988 11.522-3.572 22.869-7.238 33.78-.794 2.362-12.71 28.7-13.724 28.165l-5.077-2.83s.69-2.188 1.333-3.73c7.07-16.92 9.992-35.87 10.442-54.32.02-.802.009-2.367.009-2.367l14.322.445"/>
            <path fill="#286B9E" d="M148.425 241.83c.456 9.967-.491 19.909-1.512 29.834l-.285 2.724c-.006.055-4.915-.566-5.694-.605.253-20.335-5.865-41.6-10.812-61.187 4.901-.355 9.998 0 14.608 0 .006 0 3.577 26.663 3.695 29.234"/>
            <path fill="#92C1DB" d="M145.944 225.138l-17.557.063a.306.306 0 0 1-.3-.324l1.38-34.656c.073-1.84.831-3.894 1.668-5.495.798-1.527 1.92-2.94 3.417-3.768 1.888-1.044 4.094-.758 6.077-.196 1.811.512 3.095 3.398 4.306 4.954.429.55.766 2.344.766 2.559l.657 36.614c0 .172-.248.249-.414.249"/>
            <path fill="#FFF3E0" d="M158.23 207.365s.773-.082 1.184-.22c1.1-.37 6.475-5.3 6.885-2.701.196 1.24-.12 1.713-.648 2.834-.336.71-1.597 2.871-2.443 2.977-1.632.205-1.587.069-2.208.18a25.435 25.435 0 0 1-1.397.731l-.126.059-1.247-3.86"/>
            <path fill="#BAD9E9" d="M137.97 186.118c2.194 1.355 1.291 6.094 2.17 8.207.884 2.124 2.198 4.058 3.863 5.6 2.283 2.115 5.15 3.215 7.983 4.276 2.169.813 4.23 1.911 6.418 2.674 1.328.463 1.64.32 1.61 1.803-.018.86-.035 1.72-.056 2.58l-.083.099c-1.634.268-5.612.22-6.913.074-4.724-.53-9.388-2.057-13.33-4.853-4.84-3.434-8.596-9.228-9.676-15.253-.13-.725-.18-1.485.025-2.19.714-2.47 5.247-3.903 7.417-3.27.211.062.402.147.573.253"/>
            <path fill="#000" d="M145.235 201.127l14.208 6.538.401.185 13.124-8.87c.383-.26.31-1.208.06-1.604-1.217.9-12.933 8.712-12.933 8.712l-14.265-6.297c-.302-.13-.775.228-.9.541a.623.623 0 0 0 .305.795"/>
        </g>
    </g>
</svg>
