<svg xmlns="http://www.w3.org/2000/svg" width="128" height="131" viewBox="0 0 128 131">
    <defs>
        <linearGradient id="a" x1="0%" y1="51.565%" y2="51.565%">
            <stop offset="0%" stop-color="#4395C0"/>
            <stop offset="100%" stop-color="#205C8C"/>
        </linearGradient>
    </defs>
    <g fill="none" fill-rule="evenodd">
        <path fill="url(#a)" d="M60.544 3.22c12.004 9.076 9.285 10.449 21.765 14.458 10.128 3.254 33.716-4.98 34.864 15.045.757 13.213-2.095 26.62-.147 39.705 1.61 10.812 22.845 28.83 1.56 37.6-13.014 5.364-23.962-1.634-34.365 3.85-19.446 10.249-38.971 30.092-63.837 3.129C-4.483 90.044-.98 63.902 2.3 43.982 5.583 24.062 42.066-10.75 60.544 3.22z" opacity=".1" transform="matrix(-1 0 0 1 128 0)"/>
        <g transform="translate(34 36)">
            <rect width="15" height="2.4" x="6" y="6" fill="#0059A3" fill-rule="nonzero" rx="1.2"/>
            <rect width="15" height="2.4" x="6" y="18" fill="#0059A3" fill-rule="nonzero" rx="1.2"/>
            <rect width="17" height="2.4" x="2" y="12" fill="#0059A3" fill-rule="nonzero" rx="1.2"/>
            <path fill="#FFF" d="M57.45 26.964a3.49 3.49 0 0 0-4.922.415l-7.998 8.236h.009a3.576 3.576 0 0 0-3.432-2.577H27.861a13.962 13.962 0 0 0-5.615-1.172c-5.534 0-10.318 2.688-12.603 7.78l10.573 10.54.02-.016 1.82-1.76a4.67 4.67 0 0 1 3.247-1.313h15.583a9.305 9.305 0 0 0 6.497-2.645l10.482-12.556a3.505 3.505 0 0 0-.414-4.932z"/>
            <path fill="#5398C3" d="M46.385 12.716c0 6.47-5.234 11.715-11.692 11.715S23 19.186 23 12.716 28.235 1 34.693 1c6.458 0 11.692 5.246 11.692 11.716z"/>
            <g fill-rule="nonzero" stroke="#FFF" transform="translate(29 5)">
                <rect width="11" height="1" x=".5" y=".5" rx=".5"/>
                <rect width="11" height="1" x=".5" y="4" rx=".5"/>
                <path stroke-linecap="round" stroke-width="2" d="M2 1.034h3.58A3.403 3.403 0 0 1 8.98 4.509v.022a3.528 3.528 0 0 1-3.527 3.453H3.098a.5.5 0 0 0-.378.829l6.336 7.282"/>
            </g>
            <path fill="#0059A3" fill-rule="nonzero" d="M22.04 12.887c0 7.106 5.77 12.887 12.863 12.887 7.092 0 12.862-5.781 12.862-12.887C47.765 5.781 41.995 0 34.903 0 27.81 0 22.04 5.781 22.04 12.887zm23.386 0c0 5.814-4.72 10.544-10.523 10.544s-10.524-4.73-10.524-10.544S29.1 2.343 34.903 2.343c5.802 0 10.523 4.73 10.523 10.544z"/>
            <path fill="#F8931F" d="M19.99 53.239l-5.663 5.59L1.198 45.574l5.563-5.59a2.336 2.336 0 0 1 3.308 0l9.92 9.94c.92.921.909 2.405 0 3.315z"/>
            <path fill="#0059A3" d="M27.578 40.695c.457-.458.457-1.2 0-1.658a1.17 1.17 0 0 0-1.654 0 1.176 1.176 0 0 0 0 1.658 1.17 1.17 0 0 0 1.654 0z"/>
            <path fill="#0059A3" fill-rule="nonzero" d="M13.527 59.653a1.167 1.167 0 0 0 1.65.01l5.669-5.596a3.545 3.545 0 0 0 .832-3.635l1.22-1.178a3.483 3.483 0 0 1 2.434-.986h15.544c2.758 0 5.364-1.061 7.34-2.988.082-.079-.617.745 10.605-12.693a4.699 4.699 0 0 0-.556-6.605 4.683 4.683 0 0 0-6.561.523l-6.9 7.105a4.696 4.696 0 0 0-3.635-1.744H28.13a15.06 15.06 0 0 0-5.855-1.171c-5.63 0-10.547 2.605-13.186 7.49a3.488 3.488 0 0 0-3.127.972L.4 44.747a1.173 1.173 0 0 0-.002 1.652l13.129 13.254zm8.747-26.615c1.791 0 3.523.36 5.148 1.073.148.065.307.099.469.099h13.278a2.343 2.343 0 0 1 0 4.686h-9.54a1.17 1.17 0 0 0 0 2.343h9.54a4.687 4.687 0 0 0 4.636-5.3c6.674-6.873 7.615-7.84 7.655-7.887a2.343 2.343 0 0 1 3.297-.28 2.351 2.351 0 0 1 .274 3.307L46.544 43.641a8.133 8.133 0 0 1-5.668 2.284H25.332a5.807 5.807 0 0 0-4.059 1.643l-.993.96-9.16-9.177c2.14-4.024 6.158-6.313 11.154-6.313zM7.617 40.812a1.165 1.165 0 0 1 1.448-.164c.202.123-.379-.407 10.127 10.105.468.468.443 1.215.007 1.651l-4.833 4.77-11.49-11.599 4.741-4.763z"/>
        </g>
    </g>
</svg>
