<svg xmlns="http://www.w3.org/2000/svg" width="128" height="131" viewBox="0 0 128 131">
    <defs>
        <linearGradient id="a" x1="0%" y1="51.565%" y2="51.565%">
            <stop offset="0%" stop-color="#4395C0"/>
            <stop offset="100%" stop-color="#205C8C"/>
        </linearGradient>
    </defs>
    <g fill="none" fill-rule="evenodd">
        <path fill="url(#a)" d="M60.544 3.22c12.004 9.076 9.285 10.449 21.765 14.458 10.128 3.254 33.716-4.98 34.864 15.045.757 13.213-2.095 26.62-.147 39.705 1.61 10.812 22.845 28.83 1.56 37.6-13.014 5.364-23.962-1.634-34.365 3.85-19.446 10.249-38.971 30.092-63.837 3.129C-4.483 90.044-.98 63.902 2.3 43.982 5.583 24.062 42.066-10.75 60.544 3.22z" opacity=".1" transform="matrix(-1 0 0 1 128 0)"/>
        <g transform="translate(34 45)">
            <path fill="#FFF" fill-rule="nonzero" stroke="#0059A3" stroke-width="2.405" d="M4.009 1.203a2.806 2.806 0 0 0-2.806 2.806v27.926a2.806 2.806 0 0 0 2.806 2.806h50.055a2.806 2.806 0 0 0 2.806-2.806V4.009a2.806 2.806 0 0 0-2.806-2.806H4.01z"/>
            <path fill="#5398C3" fill-rule="nonzero" stroke="#0059A3" stroke-width="2.405" d="M1.203 8.782h55.663V4.009a2.806 2.806 0 0 0-2.806-2.806H4.009a2.806 2.806 0 0 0-2.806 2.806v4.773z"/>
            <rect width="30.067" height="2.396" x="23.051" y="15.975" fill="#0059A3" fill-rule="nonzero" rx="1.198"/>
            <rect width="19.042" height="2.396" x="23.051" y="21.965" fill="#0059A3" fill-rule="nonzero" rx="1.198"/>
            <rect width="9.02" height="2.396" x="44.098" y="21.965" fill="#0059A3" fill-rule="nonzero" rx="1.198"/>
            <path fill="#F8931F" fill-rule="nonzero" stroke="#0059A3" stroke-width="2.405" d="M8.018 15.68a.802.802 0 0 0-.802.802v9.969c0 .443.359.802.802.802H18.04a.802.802 0 0 0 .802-.802v-9.97a.802.802 0 0 0-.802-.801H8.018z"/>
            <path fill="#F8931F" stroke="#FFF" stroke-width="2.004" d="M52.35 11.981a2.072 2.072 0 0 1 2.051 1.311c.329.833.09 1.785-.577 2.347l-.154.137h5.196a2.07 2.07 0 0 1 1.819 1.036 2.09 2.09 0 0 1 0 2.091 2.065 2.065 0 0 1-1.806 1.037h-5.19l.128.113a2.09 2.09 0 0 1-.676 3.549 2.068 2.068 0 0 1-2.048-.404l-4.274-3.774a2.086 2.086 0 0 1-.006-3.144l4.275-3.776c.35-.312.795-.497 1.262-.523z"/>
            <path fill="#5398C3" stroke="#FFF" stroke-width="2.004" d="M54.473 28.956a2.057 2.057 0 0 1 1.516.52l4.262 3.773a2.088 2.088 0 0 1 .006 3.142l-4.269 3.78c-.56.495-1.341.65-2.046.404a2.08 2.08 0 0 1-1.357-1.581c-.138-.73.121-1.48.675-1.961l.136-.12H48.27a2.067 2.067 0 0 1-1.843-.961 2.094 2.094 0 0 1-.096-2.072 2.07 2.07 0 0 1 1.891-1.13h5.193l-.138-.123a2.09 2.09 0 0 1-.636-2.238 2.071 2.071 0 0 1 1.832-1.433z"/>
        </g>
    </g>
</svg>
