<svg xmlns="http://www.w3.org/2000/svg" width="128" height="131" viewBox="0 0 128 131">
    <defs>
        <linearGradient id="a" x1="0%" y1="51.565%" y2="51.565%">
            <stop offset="0%" stop-color="#4395C0"/>
            <stop offset="100%" stop-color="#205C8C"/>
        </linearGradient>
    </defs>
    <g fill="none" fill-rule="evenodd">
        <path fill="url(#a)" d="M60.544 3.22c12.004 9.076 9.285 10.449 21.765 14.458 10.128 3.254 33.716-4.98 34.864 15.045.757 13.213-2.095 26.62-.147 39.705 1.61 10.812 22.845 28.83 1.56 37.6-13.014 5.364-23.962-1.634-34.365 3.85-19.446 10.249-38.971 30.092-63.837 3.129C-4.483 90.044-.98 63.902 2.3 43.982 5.583 24.062 42.066-10.75 60.544 3.22z" opacity=".1" transform="matrix(-1 0 0 1 128 0)"/>
        <path fill="#FFF" fill-rule="nonzero" d="M86.785 48.768c0-.338.167-.827-.143-.968L65.077 37.544c-.23-.106-2.004-.106-2.235 0l-18.788 8.944c-.31.14-3.03.974-3.03 1.312l.178 16.996c.016 8.812 6.603 20.798 14.667 24.481l7.771 3.677c.231.106.496.106.727 0l5.225-2.783c8.709-3.284 17.507-15.466 17.523-24.278l-.33-17.125zM81.437 65.01c-.014 8.135-4.787 15.521-12.231 18.923L64 86.3l-5.205-2.37C51.35 80.53 46.577 73.145 46.563 65.01V51.652L64 43.718l17.437 7.934v13.357z"/>
        <path fill="#0059A3" fill-rule="nonzero" stroke="#0059A3" stroke-width=".984" d="M83.18 51.096a.864.864 0 0 0-.508-.787l-18.308-8.33a.877.877 0 0 0-.728 0l-18.308 8.33a.865.865 0 0 0-.508.787v13.913c.016 8.812 5.188 16.812 13.252 20.495l5.568 2.534c.231.105.496.105.727 0l5.562-2.534c8.063-3.683 13.236-11.683 13.251-20.495V51.096zm-1.743 13.913c-.014 8.135-4.787 15.521-12.231 18.923L64 86.3l-5.205-2.37C51.35 80.53 46.577 73.145 46.563 65.01V51.652L64 43.718l17.437 7.934v13.357z"/>
        <path fill="#FFF" fill-rule="nonzero" d="M81.437 65.01c-.014 8.134-4.787 15.52-12.231 18.922L64 86.3l-5.205-2.37C51.35 80.53 46.577 73.145 46.563 65.01V51.652L64 43.718l17.437 7.934v13.357z"/>
        <path fill="#5398C3" d="M75.69 65.22c0 6.363-5.148 11.52-11.5 11.52s-11.501-5.157-11.501-11.52c0-6.362 5.149-11.52 11.5-11.52 6.353 0 11.502 5.158 11.502 11.52z"/>
        <g fill-rule="nonzero" stroke="#FFF" transform="translate(58.59 57.633)">
            <rect width="10.82" height="1" x=".492" y=".492" stroke-width=".984" rx=".5"/>
            <rect width="10.82" height="1" x=".492" y="3.933" stroke-width=".984" rx=".5"/>
            <path stroke-linecap="round" stroke-width="1.967" d="M1.967 1.017H5.49a3.346 3.346 0 0 1 3.345 3.417v.021a3.47 3.47 0 0 1-3.47 3.396H3.047a.492.492 0 0 0-.37.815l6.23 7.16"/>
        </g>
        <path fill="#0059A3" fill-rule="nonzero" d="M51.745 65.389c0 6.987 5.675 12.672 12.651 12.672s12.651-5.685 12.651-12.672c0-6.988-5.675-12.672-12.65-12.672-6.977 0-12.652 5.684-12.652 12.672zm23.002 0c0 5.717-4.643 10.368-10.35 10.368-5.709 0-10.352-4.651-10.352-10.368 0-5.717 4.643-10.368 10.351-10.368 5.708 0 10.351 4.651 10.351 10.368z"/>
        <path fill="#0059A3" fill-rule="nonzero" stroke="#1C5B8E" stroke-width=".5" d="M93.66 83.766l-7.893-7.904a27.875 27.875 0 0 0 2.25-10.93V47.593a.963.963 0 0 0-.561-.876L64.37 36.121a.96.96 0 0 0-.803 0L40.481 46.717a.964.964 0 0 0-.56.876v17.339a27.901 27.901 0 0 0 2.249 10.93l-7.888 7.904a.964.964 0 0 0 .427 1.611l6.954 1.897 1.894 6.963a.962.962 0 0 0 1.608.425l6.764-6.774a27.792 27.792 0 0 0 4.297 2.48l7.347 3.371a.96.96 0 0 0 .802 0l7.346-3.371a27.819 27.819 0 0 0 4.297-2.48l6.764 6.774a.961.961 0 0 0 1.608-.425l1.894-6.963 6.954-1.897a.964.964 0 0 0 .427-1.61h-.005zM44.973 92.13l-1.604-5.893a.964.964 0 0 0-.673-.674l-5.886-1.608 6.23-6.238a28.101 28.101 0 0 0 7.33 9.008l-5.397 5.405zm25.942-3.51l-6.946 3.188-6.946-3.189a26.126 26.126 0 0 1-15.179-23.686v-16.72L63.97 38.057l22.124 10.155v16.72a26.124 26.124 0 0 1-15.178 23.686zm14.332-3.059a.962.962 0 0 0-.673.674l-1.603 5.893-5.398-5.405a28.101 28.101 0 0 0 7.331-9.008l6.23 6.239-5.887 1.607z"/>
        <path fill="#F8931F" fill-rule="nonzero" d="M44.973 92.129l-1.604-5.893a.964.964 0 0 0-.673-.674l-5.886-1.608 6.23-6.238a28.101 28.101 0 0 0 7.33 9.008l-5.397 5.405zM85.247 85.56a.962.962 0 0 0-.673.674l-1.603 5.893-5.398-5.405a28.101 28.101 0 0 0 7.331-9.008l6.23 6.239-5.887 1.607z"/>
    </g>
</svg>
