<svg xmlns="http://www.w3.org/2000/svg" width="128" height="131" viewBox="0 0 128 131">
    <defs>
        <linearGradient id="a" x1="0%" y1="51.565%" y2="51.565%">
            <stop offset="0%" stop-color="#4395C0"/>
            <stop offset="100%" stop-color="#205C8C"/>
        </linearGradient>
    </defs>
    <g fill="none" fill-rule="evenodd">
        <path fill="url(#a)" d="M60.544 3.22c12.004 9.076 9.285 10.449 21.765 14.458 10.128 3.254 33.716-4.98 34.864 15.045.757 13.213-2.095 26.62-.147 39.705 1.61 10.812 22.845 28.83 1.56 37.6-13.014 5.364-23.962-1.634-34.365 3.85-19.446 10.249-38.971 30.092-63.837 3.129C-4.483 90.044-.98 63.902 2.3 43.982 5.583 24.062 42.066-10.75 60.544 3.22z" opacity=".1" transform="matrix(-1 0 0 1 128 0)"/>
        <g fill-rule="nonzero" transform="translate(35 36)">
            <path fill="#FFF" stroke="#0059A3" stroke-width="2.4" d="M12 25.2A8.8 8.8 0 0 0 3.2 34v14A2.8 2.8 0 0 0 6 50.8h46.66a2.8 2.8 0 0 0 2.8-2.8V34a8.8 8.8 0 0 0-8.8-8.8H12z"/>
            <path fill="#F8931F" stroke="#0059A3" stroke-width="2.4" d="M1.53 45.2V48a2.8 2.8 0 0 0 2.8 2.8h50a2.8 2.8 0 0 0 2.8-2.8v-2.8H1.53z"/>
            <path fill="#FFF" stroke="#0059A3" stroke-width="2.4" d="M7.537 24.8h42.926l-1.734-6.934a8.8 8.8 0 0 0-8.537-6.666H17.808a8.8 8.8 0 0 0-8.537 6.666L7.537 24.8z"/>
            <path fill="#5398C3" fill-rule="evenodd" stroke="#0059A3" stroke-linejoin="square" stroke-width="2.4" d="M26.961 1.2a.8.8 0 0 0-.624.3l-6.282 7.852a.8.8 0 0 0 .06 1.065l6.148 6.149a.8.8 0 0 0 .565.234H57a.8.8 0 0 0 .8-.8V2a.8.8 0 0 0-.8-.8H26.961z"/>
            <path stroke="#FFF" stroke-width="2" d="M26.961-1H57a3 3 0 0 1 3 3v14a3 3 0 0 1-3 3H26.828a3 3 0 0 1-2.12-.879l-6.15-6.148a3 3 0 0 1-.22-3.996l6.28-7.851A3 3 0 0 1 26.962-1z"/>
            <circle cx="14" cy="34" r="3.8" fill="#FFF" stroke="#0059A3" stroke-width="2.4"/>
            <circle cx="45" cy="34" r="3.8" fill="#FFF" stroke="#0059A3" stroke-width="2.4"/>
            <rect width="14" height="2.4" x="22.5" y="34" fill="#0059A3" rx="1.2"/>
            <rect width="14" height="2.4" x="22.5" y="39" fill="#0059A3" rx="1.2"/>
            <rect width="2.4" height="2.4" x="7" y="40" fill="#0059A3" rx="1.2"/>
            <rect width="2.4" height="2.4" x="50" y="40" fill="#0059A3" rx="1.2"/>
            <path stroke="#0059A3" stroke-width="2.4" d="M6.2 51.2V54A2.8 2.8 0 0 0 9 56.8h2a2.8 2.8 0 0 0 2.8-2.8v-2.8H6.2zM45.2 51.2V54a2.8 2.8 0 0 0 2.8 2.8h2a2.8 2.8 0 0 0 2.8-2.8v-2.8h-7.6z"/>
        </g>
        <path fill="#FFF" stroke="#FFF" stroke-width=".75" d="M61.19 47.19a.532.532 0 0 1-.08-.73c.18-.22.51-.25.73-.07.44.36 1.2.78 1.91.77.5 0 .95-.15 1.25-.37.3-.22.43-.47.43-.72 0-.13-.03-.22-.09-.32s-.15-.2-.3-.3c-.29-.19-.78-.36-1.37-.47h-.02c-.47-.09-.91-.21-1.29-.39-.38-.18-.71-.43-.93-.78-.15-.24-.23-.52-.23-.82 0-.6.34-1.12.8-1.46.47-.34 1.08-.53 1.73-.53.96 0 1.67.47 2.18.8.23.16.3.48.14.71-.15.24-.47.31-.71.15-.51-.34-1-.64-1.61-.64-.45 0-.85.14-1.12.34-.27.2-.38.42-.38.63 0 .12.02.2.07.28.05.08.14.17.27.26.26.18.71.34 1.25.44h.02c.51.1.98.23 1.38.42.41.2.77.46 1 .83.15.24.24.54.24.85 0 .64-.36 1.19-.86 1.55-.49.36-1.14.57-1.85.57-1.08-.01-1.99-.55-2.56-1zM71.83 41c.92 0 1.8.41 2.39 1.07a3.673 3.673 0 0 1 0 5.06c-.59.65-1.47 1.07-2.39 1.07-.96 0-1.84-.42-2.45-1.07-.62-.65-.99-1.54-.99-2.53 0-.99.37-1.87.99-2.53.61-.66 1.49-1.07 2.45-1.07zm1.58 5.34c.41-.43.68-1.06.68-1.74 0-.68-.27-1.31-.68-1.75-.42-.45-.98-.71-1.58-.71-.64 0-1.2.26-1.62.71-.42.44-.68 1.07-.68 1.75 0 .68.26 1.31.68 1.74.42.45.98.72 1.62.72.6 0 1.16-.27 1.58-.72zm4.99 1.86c-.31 0-.55-.25-.55-.55v-5.9c0-.3.24-.55.55-.55.31 0 .56.25.56.55v5.34h2.71c.29 0 .55.25.55.56 0 .3-.26.55-.55.55H78.4zm6.33 0c-.31 0-.55-.25-.55-.55v-5.9c0-.31.24-.55.55-.55h1.18c1.93 0 3.49 1.57 3.49 3.49 0 1.94-1.56 3.51-3.49 3.51h-1.18zm.56-5.89v4.78h.62a2.39 2.39 0 0 0 2.38-2.4 2.38 2.38 0 0 0-2.38-2.38h-.62z"/>
    </g>
</svg>
